<?xml version="1.0" encoding="iso-8859-1"?>
<!-- Generator: Adobe Illustrator 22.1.0, SVG Export Plug-In . SVG Version: 6.00 Build 0)  -->
<svg version="1.1" id="Layer_1" xmlns="http://www.w3.org/2000/svg" xmlns:xlink="http://www.w3.org/1999/xlink" x="0px" y="0px"
	 viewBox="0 0 50 50" style="enable-background:new 0 0 50 50;" xml:space="preserve">
<g id="Layer_1_1_">
	<path d="M12,27C5.935,27,1,31.935,1,38s4.935,11,11,11c3.71,0,7.187-1.902,9.209-5h7.581c2.023,3.098,5.5,5,9.209,5
		c6.065,0,11-4.935,11-11s-4.935-11-11-11H26v-2c0-2.206-1.794-4-4-4h-4c-1.103,0-2-0.897-2-2s0.897-2,2-2h14c2.206,0,4-1.794,4-4
		s-1.794-4-4-4h-4c-1.103,0-2-0.897-2-2V1h-2v6c0,2.206,1.794,4,4,4h4c1.103,0,2,0.897,2,2s-0.897,2-2,2H18c-2.206,0-4,1.794-4,4
		s1.794,4,4,4h4c1.103,0,2,0.897,2,2v2H12z M47,38c0,4.962-4.038,9-9,9c-3.194,0-6.178-1.725-7.786-4.501L29.926,42h-9.85
		l-0.289,0.499C18.179,45.275,15.194,47,12,47c-4.962,0-9-4.038-9-9s4.038-9,9-9h26C42.962,29,47,33.038,47,38z"/>
	<polygon points="11,34 11,37 8,37 8,39 11,39 11,42 13,42 13,39 16,39 16,37 13,37 13,34 	"/>
	<rect x="21" y="38" width="3" height="2"/>
	<rect x="26" y="38" width="3" height="2"/>
	<rect x="35" y="34" width="2" height="2"/>
	<rect x="40" y="33" width="2" height="2"/>
	<rect x="35" y="39" width="2" height="2"/>
	<rect x="40" y="38" width="2" height="2"/>
</g>
</svg>
