<svg width="135" height="45" viewBox="0 0 135 45" fill="none" xmlns="http://www.w3.org/2000/svg">
<g clip-path="url(#clip0)">
<path d="M24.9674 36.6901C15.9352 36.687 9.90002 30.2862 9.90002 22.5253C9.90002 14.7644 15.949 8.29011 24.9537 8.31H110.046C119.051 8.29011 125.1 14.7644 125.1 22.5253C125.1 30.2862 119.065 36.687 110.033 36.6901H24.9674ZM24.995 11.8011C17.8445 11.8149 13.4554 16.5941 13.4554 22.5069C13.4554 28.4182 17.8169 33.2372 24.995 33.2112H110.005C117.183 33.2357 121.546 28.4182 121.546 22.5069C121.546 16.5956 117.157 11.8164 110.007 11.8026L24.995 11.8011ZM114.578 16.7914C115.228 16.7914 115.551 17.0117 115.551 17.4477C115.551 17.7476 115.364 17.974 115.054 18.052L115.563 19.0694H114.946L114.51 18.1362H114.24V19.0694H113.684V16.7914H114.578ZM114.527 15.9011C113.392 15.9011 112.471 16.822 112.471 17.9572C112.471 19.0923 113.392 20.0133 114.527 20.0133C115.662 20.0133 116.583 19.0923 116.583 17.9572C116.583 16.822 115.662 15.9011 114.527 15.9011ZM116.19 17.9587C116.19 18.8766 115.445 19.6216 114.527 19.6216C113.609 19.6216 112.864 18.8766 112.864 17.9587C112.864 17.0408 113.609 16.2958 114.527 16.2958C115.445 16.2958 116.19 17.0393 116.19 17.9587ZM114.24 17.8027H114.51C114.827 17.8027 114.98 17.7063 114.98 17.4799C114.98 17.2427 114.816 17.1402 114.483 17.1402H114.24V17.8027ZM67.7693 23.3697C67.7632 22.5911 67.78 22.0709 68.0355 21.6273C68.3491 21.0796 68.9259 20.8195 69.4491 20.8165H69.4475C69.9707 20.8195 70.5474 21.0796 70.8611 21.6273C71.1165 22.0724 71.1272 22.5926 71.1211 23.3713L67.7693 23.3697ZM71.1074 26.0485C71.1074 26.0485 71.1105 26.0883 71.1105 26.587C71.1105 28.2117 70.0411 28.5727 69.4475 28.5727C68.8539 28.5727 67.7662 28.2117 67.7662 26.587C67.7662 26.1005 67.7693 24.7527 67.7693 24.7527C67.7693 24.7527 75.3374 24.7558 75.3374 24.7512C75.3374 21.9959 72.677 19.7134 69.4093 19.7134C66.1415 19.7134 63.4934 21.947 63.4934 24.7022C63.4934 27.4574 66.1415 29.6895 69.4093 29.6895C72.1202 29.6895 74.4103 28.1428 75.1095 26.0454L71.1074 26.0485ZM83.7485 19.8618C85.2508 19.819 88.2982 20.8027 88.2768 24.3198C88.2737 24.9439 88.2752 29.1541 88.2752 29.1541H84.2839C84.2839 29.1541 84.2839 23.8746 84.2839 23.3193C84.2839 22.5452 83.5434 21.6839 82.4481 21.6839C81.3542 21.6839 80.5404 22.5452 80.5404 23.3193C80.5404 23.6987 80.5449 29.1541 80.5449 29.1541H76.5566L76.5597 20.2703L80.5465 20.2672C80.5465 20.2672 80.5419 20.9817 80.5465 21.202C81.3144 20.4692 82.4221 19.9001 83.7484 19.8618H83.7485ZM51.0986 19.8618C52.6009 19.819 55.6484 20.8027 55.6269 24.3198C55.6239 24.9439 55.6254 29.1541 55.6254 29.1541H51.634C51.634 29.1541 51.634 23.8746 51.634 23.3193C51.634 22.5452 50.8936 21.6839 49.7982 21.6839C48.7044 21.6839 47.8905 22.5452 47.8905 23.3193C47.8905 23.6987 47.8951 29.1541 47.8951 29.1541H43.9068L43.9052 20.2703L47.8966 20.2672C47.8966 20.2672 47.892 20.9817 47.8966 21.202C48.6646 20.4692 49.7706 19.9001 51.0985 19.8618H51.0986ZM96.9357 15.797H100.901V29.1571H96.9296C96.9296 29.1571 96.928 28.7257 96.928 28.6431C95.3905 29.6084 93.6557 29.6069 92.3048 28.9766C91.9423 28.8083 89.5572 27.664 89.5572 24.5722C89.5572 22.227 91.7694 19.666 94.6654 19.92C95.6185 20.0041 96.2962 20.3514 96.9387 20.7124C96.9356 18.6563 96.9356 15.797 96.9356 15.797H96.9357ZM96.9648 24.6701C96.9648 24.6701 96.9648 23.5564 96.9648 23.0821C96.9648 21.7083 96.0163 21.358 95.3921 21.358C94.7526 21.358 93.8164 21.7083 93.8164 23.0821C93.8164 23.538 93.8179 24.6655 93.8179 24.6655C93.8179 24.6655 93.8164 25.7731 93.8164 26.2458C93.8164 27.6181 94.7526 27.9776 95.3906 27.9776C96.0163 27.9776 96.9663 27.6181 96.9663 26.2458C96.9663 25.6752 96.9647 24.6701 96.9647 24.6701H96.9648ZM109.695 24.6441C109.695 24.6441 109.693 25.9873 109.693 26.5258C109.693 27.9424 108.856 28.5268 108.051 28.5268C107.245 28.5268 106.405 27.9424 106.405 26.5258C106.405 25.9873 106.407 24.6104 106.407 24.6104C106.407 24.6104 106.41 23.2963 106.41 22.7578C106.41 21.3473 107.251 20.7675 108.052 20.7675C108.853 20.7675 109.693 21.3473 109.693 22.7578C109.693 23.2963 109.691 24.2922 109.696 24.6487L109.695 24.6441ZM108.081 19.666C104.837 19.666 102.209 21.8996 102.209 24.6548C102.209 27.4101 104.839 29.6436 108.081 29.6436C111.324 29.6436 113.952 27.4101 113.952 24.6548C113.952 21.8996 111.324 19.666 108.081 19.666ZM37.6666 18.5247V15.794H41.6932V18.5247H37.6666ZM37.6758 29.1571V20.2718L41.6932 20.2734V29.1572L37.6758 29.1571ZM57.8314 29.1571L57.833 20.2902H55.6484V18.9715L57.8346 18.9699L57.8315 17.1708H61.8519V18.9684H64.0273V20.2901H61.8519L61.855 29.1571L57.8314 29.1571ZM21.3264 29.1571L21.3279 15.797H25.4906L31.2489 25.1138L31.2459 15.797H35.3765V29.1571H31.252L25.4631 19.8404V29.1571H21.3264Z" fill="#E60012"/>
</g>
<defs>
<clipPath id="clip0">
<rect width="135" height="45" fill="white"/>
</clipPath>
</defs>
</svg>
