<svg width="165" height="55" viewBox="0 0 165 55" fill="none" xmlns="http://www.w3.org/2000/svg">
<path d="M30.5157 44.8434C19.4764 44.8397 12.1 37.0164 12.1 27.5309C12.1 18.0454 19.4932 10.1324 30.4989 10.1567H134.501C145.507 10.1324 152.9 18.0454 152.9 27.5309C152.9 37.0164 145.524 44.8397 134.484 44.8434H30.5157ZM30.5494 14.4236C21.8099 14.4404 16.4454 20.2817 16.4454 27.5085C16.4454 34.7334 21.7762 40.6233 30.5494 40.5915H134.451C143.224 40.6214 148.556 34.7334 148.556 27.5085C148.556 20.2835 143.192 14.4423 134.453 14.4254L30.5494 14.4236ZM140.04 20.5229C140.834 20.5229 141.229 20.7921 141.229 21.325C141.229 21.6915 141.001 21.9682 140.621 22.0636L141.244 23.307H140.49L139.957 22.1664H139.626V23.307H138.948V20.5229H140.04ZM139.978 19.4346C138.59 19.4346 137.465 20.5603 137.465 21.9477C137.465 23.3351 138.59 24.4607 139.978 24.4607C141.365 24.4607 142.491 23.3351 142.491 21.9477C142.491 20.5603 141.365 19.4346 139.978 19.4346ZM142.01 21.9495C142.01 23.0714 141.1 23.982 139.978 23.982C138.856 23.982 137.945 23.0714 137.945 21.9495C137.945 20.8276 138.856 19.917 139.978 19.917C141.1 19.917 142.01 20.8258 142.01 21.9495ZM139.626 21.7588H139.957C140.344 21.7588 140.531 21.641 140.531 21.3643C140.531 21.0745 140.331 20.9492 139.924 20.9492H139.626V21.7588ZM82.8291 28.563C82.8216 27.6113 82.8422 26.9756 83.1545 26.4333C83.5378 25.7639 84.2427 25.4461 84.8822 25.4423H84.8802C85.5197 25.4461 86.2246 25.7639 86.6079 26.4333C86.9202 26.9774 86.9333 27.6132 86.9258 28.5649L82.8291 28.563ZM86.909 31.8371C86.909 31.8371 86.9128 31.8857 86.9128 32.4952C86.9128 34.481 85.6058 34.9222 84.8803 34.9222C84.1548 34.9222 82.8254 34.481 82.8254 32.4952C82.8254 31.9006 82.8291 30.2533 82.8291 30.2533C82.8291 30.2533 92.079 30.2571 92.079 30.2514C92.079 26.8839 88.8274 24.0941 84.8335 24.0941C80.8396 24.0941 77.603 26.824 77.603 30.1916C77.603 33.5591 80.8396 36.2871 84.8335 36.2871C88.1468 36.2871 90.9459 34.3968 91.8004 31.8333L86.909 31.8371ZM102.359 24.2756C104.195 24.2232 107.92 25.4255 107.894 29.7242C107.89 30.487 107.892 35.6328 107.892 35.6328H103.014C103.014 35.6328 103.014 29.1801 103.014 28.5013C103.014 27.5552 102.109 26.5025 100.77 26.5025C99.4329 26.5025 98.4382 27.5552 98.4382 28.5013C98.4382 28.965 98.4438 35.6328 98.4438 35.6328H93.5692L93.5729 24.7748L98.4457 24.7711C98.4457 24.7711 98.44 25.6443 98.4457 25.9135C99.3843 25.0179 100.738 24.3223 102.359 24.2756H102.359ZM62.4538 24.2756C64.29 24.2232 68.0146 25.4255 67.9885 29.7242C67.9847 30.487 67.9865 35.6328 67.9865 35.6328H63.1082C63.1082 35.6328 63.1082 29.1801 63.1082 28.5013C63.1082 27.5552 62.2032 26.5025 60.8645 26.5025C59.5275 26.5025 58.5328 27.5552 58.5328 28.5013C58.5328 28.965 58.5384 35.6328 58.5384 35.6328H53.6638L53.6619 24.7748L58.5402 24.7711C58.5402 24.7711 58.5346 25.6443 58.5402 25.9135C59.4789 25.0179 60.8307 24.3223 62.4537 24.2756H62.4538ZM118.477 19.3075H123.323V35.6365H118.469C118.469 35.6365 118.468 35.1092 118.468 35.0082C116.588 36.1881 114.468 36.1862 112.817 35.4159C112.374 35.2102 109.459 33.8116 109.459 30.0327C109.459 27.1663 112.163 24.0362 115.702 24.3466C116.867 24.4494 117.695 24.8739 118.481 25.3152C118.477 22.8021 118.477 19.3075 118.477 19.3075H118.477ZM118.512 30.1524C118.512 30.1524 118.512 28.7911 118.512 28.2115C118.512 26.5324 117.353 26.1042 116.59 26.1042C115.809 26.1042 114.664 26.5324 114.664 28.2115C114.664 28.7687 114.666 30.1467 114.666 30.1467C114.666 30.1467 114.664 31.5005 114.664 32.0782C114.664 33.7555 115.809 34.1949 116.588 34.1949C117.353 34.1949 118.514 33.7555 118.514 32.0782C118.514 31.3808 118.512 30.1524 118.512 30.1524H118.512ZM134.071 30.1206C134.071 30.1206 134.069 31.7623 134.069 32.4204C134.069 34.1519 133.046 34.8661 132.063 34.8661C131.077 34.8661 130.051 34.1519 130.051 32.4204C130.051 31.7623 130.053 30.0794 130.053 30.0794C130.053 30.0794 130.057 28.4733 130.057 27.8151C130.057 26.0911 131.085 25.3825 132.063 25.3825C133.043 25.3825 134.069 26.0911 134.069 27.8151C134.069 28.4733 134.067 29.6905 134.073 30.1262L134.071 30.1206ZM132.098 24.0362C128.134 24.0362 124.922 26.7661 124.922 30.1337C124.922 33.5012 128.136 36.2311 132.098 36.2311C136.062 36.2311 139.275 33.5012 139.275 30.1337C139.275 26.7661 136.062 24.0362 132.098 24.0362ZM46.037 22.6413V19.3038H50.9583V22.6413H46.037ZM46.0482 35.6365V24.7767L50.9583 24.7786V35.6365L46.0482 35.6365ZM70.6829 35.6365L70.6848 24.7991H68.0147V23.1873L70.6866 23.1854L70.6829 20.9865H75.5968V23.1835H78.2556V24.7991H75.5968L75.6005 35.6364L70.6829 35.6365ZM26.0656 35.6365L26.0675 19.3075H31.1552L38.1931 30.6946L38.1894 19.3075H43.2379V35.6365H38.1969L31.1215 24.2494V35.6365H26.0656Z" fill="white"/>
</svg>
